<svg width="13" height="25" viewBox="0 0 13 25" fill="none" xmlns="http://www.w3.org/2000/svg">
<path d="M5.96845 10.9623C6.59307 10.8846 7.04137 10.786 7.31035 10.6665C7.79152 10.4632 8.0336 10.1435 8.0336 9.71309C8.0336 9.18709 7.84831 8.82248 7.47771 8.62224C7.10712 8.422 6.56319 8.32039 5.84591 8.32039C5.04197 8.32039 4.47114 8.51764 4.13641 8.90915C3.89732 9.19905 3.73892 9.59355 3.65823 10.0867H0.418536C0.490263 8.96294 0.804071 8.03945 1.36594 7.3162C2.25655 6.18649 3.78973 5.61865 5.95948 5.61865C7.37311 5.61865 8.62535 5.8966 9.72517 6.45547C10.822 7.01435 11.3719 8.06635 11.3719 9.61447V15.5081C11.3719 15.9175 11.3809 16.4106 11.3958 16.9934C11.4197 17.4328 11.4855 17.7316 11.5961 17.89C11.7066 18.0484 11.871 18.1769 12.0922 18.2785V18.7776H8.43408C8.33247 18.5176 8.26074 18.2756 8.22189 18.0454C8.18303 17.8153 8.15016 17.5583 8.12625 17.2684C7.66002 17.7705 7.12206 18.1979 6.51537 18.5535C5.78913 18.9689 4.96725 19.1781 4.04974 19.1781C2.87819 19.1781 1.91286 18.8464 1.15075 18.1829C0.38865 17.5194 0.00610352 16.578 0.00610352 15.3586C0.00610352 13.7776 0.618776 12.636 1.84711 11.9277C2.51955 11.5421 3.50879 11.2672 4.81483 11.1028L5.96845 10.9623ZM8.02165 12.5284C7.80646 12.6629 7.58829 12.7705 7.37012 12.8542C7.15195 12.9378 6.8501 13.0126 6.46755 13.0843L5.70246 13.2248C4.98518 13.3503 4.47114 13.5027 4.15733 13.685C3.62834 13.9928 3.36534 14.468 3.36534 15.1106C3.36534 15.6844 3.52673 16.0998 3.8495 16.3539C4.17227 16.6109 4.56677 16.7364 5.02703 16.7364C5.76223 16.7364 6.43767 16.5242 7.05632 16.0998C7.67496 15.6754 7.99475 14.9014 8.02165 13.7776V12.5284V12.5284Z" fill="#F80032"/>
<path d="M12.101 0H0V3.30245H12.101V0Z" fill="#F80032"/>
<path d="M12.1159 21.6975H0.0148926V25H12.1159V21.6975Z" fill="#F80032"/>
</svg>
