<svg width="60" height="27" viewBox="0 0 60 27" fill="none" xmlns="http://www.w3.org/2000/svg">
<rect x="0.5" y="0.935181" width="58.0331" height="25.5649" rx="4.5" fill="#A0A3EA" stroke="#0D15D7"/>
<path d="M11.7261 14.9674H13.0688C13.033 15.4427 12.9012 15.8642 12.6733 16.2321C12.4455 16.5966 12.1281 16.8831 11.7212 17.0914C11.3143 17.2998 10.8211 17.4039 10.2417 17.4039C9.79574 17.4039 9.39372 17.3258 9.03564 17.1696C8.68083 17.0101 8.37646 16.7838 8.12256 16.4908C7.87191 16.1946 7.67985 15.8398 7.54639 15.4264C7.41292 15.0097 7.34619 14.5426 7.34619 14.025V13.483C7.34619 12.9655 7.41455 12.4983 7.55127 12.0817C7.68799 11.665 7.8833 11.3102 8.13721 11.0172C8.39437 10.721 8.70199 10.4931 9.06006 10.3336C9.42139 10.1741 9.82503 10.0944 10.271 10.0944C10.8504 10.0944 11.3403 10.2018 11.7407 10.4166C12.1411 10.6282 12.452 10.9196 12.6733 11.2906C12.8947 11.6617 13.0282 12.0882 13.0737 12.5699H11.731C11.7049 12.2705 11.6398 12.0166 11.5356 11.8082C11.4347 11.5999 11.2817 11.442 11.0767 11.3346C10.8748 11.2239 10.6063 11.1686 10.271 11.1686C10.0106 11.1686 9.78109 11.2174 9.58252 11.3151C9.38721 11.4127 9.22445 11.5592 9.09424 11.7545C8.96403 11.9466 8.86637 12.1875 8.80127 12.4772C8.73617 12.7636 8.70361 13.0957 8.70361 13.4733V14.025C8.70361 14.3864 8.73291 14.7102 8.7915 14.9967C8.8501 15.2832 8.94124 15.5257 9.06494 15.7242C9.18864 15.9228 9.34814 16.0742 9.54346 16.1783C9.73877 16.2825 9.97152 16.3346 10.2417 16.3346C10.5705 16.3346 10.8374 16.2825 11.0425 16.1783C11.2508 16.0742 11.4087 15.9212 11.5161 15.7194C11.6268 15.5175 11.6968 15.2669 11.7261 14.9674ZM13.7817 14.7184V14.6158C13.7817 14.2285 13.8371 13.872 13.9478 13.5465C14.0584 13.2177 14.2196 12.9329 14.4312 12.692C14.6427 12.4511 14.9015 12.264 15.2075 12.1305C15.5135 11.9938 15.8618 11.9254 16.2524 11.9254C16.6496 11.9254 17.0011 11.9938 17.3071 12.1305C17.6164 12.264 17.8768 12.4511 18.0884 12.692C18.3 12.9329 18.4611 13.2177 18.5718 13.5465C18.6825 13.872 18.7378 14.2285 18.7378 14.6158V14.7184C18.7378 15.1025 18.6825 15.4589 18.5718 15.7877C18.4611 16.1132 18.3 16.3981 18.0884 16.6422C17.8768 16.8831 17.618 17.0703 17.312 17.2037C17.006 17.3372 16.6561 17.4039 16.2622 17.4039C15.8716 17.4039 15.5216 17.3372 15.2124 17.2037C14.9032 17.0703 14.6427 16.8831 14.4312 16.6422C14.2196 16.3981 14.0584 16.1132 13.9478 15.7877C13.8371 15.4589 13.7817 15.1025 13.7817 14.7184ZM15.0708 14.6158V14.7184C15.0708 14.9495 15.0936 15.166 15.1392 15.3678C15.1847 15.5696 15.2547 15.747 15.3491 15.9C15.4435 16.053 15.5656 16.1735 15.7153 16.2614C15.8683 16.346 16.0506 16.3883 16.2622 16.3883C16.4705 16.3883 16.6496 16.346 16.7993 16.2614C16.9491 16.1735 17.0711 16.053 17.1655 15.9C17.2632 15.747 17.3348 15.5696 17.3804 15.3678C17.4259 15.166 17.4487 14.9495 17.4487 14.7184V14.6158C17.4487 14.388 17.4259 14.1748 17.3804 13.9762C17.3348 13.7744 17.2632 13.597 17.1655 13.444C17.0711 13.2877 16.9474 13.1656 16.7944 13.0778C16.6447 12.9866 16.464 12.941 16.2524 12.941C16.0441 12.941 15.8651 12.9866 15.7153 13.0778C15.5656 13.1656 15.4435 13.2877 15.3491 13.444C15.2547 13.597 15.1847 13.7744 15.1392 13.9762C15.0936 14.1748 15.0708 14.388 15.0708 14.6158ZM20.9595 13.1071V17.3063H19.6704V12.0231H20.8862L20.9595 13.1071ZM20.769 14.4742H20.3735C20.3735 14.1064 20.4175 13.7679 20.5054 13.4586C20.5965 13.1494 20.73 12.8808 20.9058 12.653C21.0815 12.4218 21.298 12.2428 21.5552 12.1158C21.8156 11.9889 22.1167 11.9254 22.4585 11.9254C22.6961 11.9254 22.9142 11.9612 23.1128 12.0328C23.3114 12.1012 23.4823 12.2102 23.6255 12.36C23.772 12.5065 23.8843 12.6985 23.9624 12.9362C24.0405 13.1705 24.0796 13.4521 24.0796 13.7809V17.3063H22.7905V13.9127C22.7905 13.6653 22.7547 13.4716 22.6831 13.3317C22.6147 13.1917 22.5155 13.094 22.3853 13.0387C22.255 12.9801 22.0988 12.9508 21.9165 12.9508C21.7147 12.9508 21.5405 12.9915 21.394 13.0729C21.2508 13.151 21.132 13.2601 21.0376 13.4C20.9465 13.54 20.8781 13.7011 20.8325 13.8834C20.7902 14.0657 20.769 14.2627 20.769 14.4742ZM23.9819 14.235L23.4497 14.3326C23.453 14.0006 23.4985 13.6897 23.5864 13.4C23.6743 13.1071 23.8029 12.8515 23.9722 12.6334C24.1447 12.4121 24.3579 12.2395 24.6118 12.1158C24.869 11.9889 25.1652 11.9254 25.5005 11.9254C25.7609 11.9254 25.9953 11.9628 26.2036 12.0377C26.4152 12.1093 26.5959 12.2249 26.7456 12.3844C26.8953 12.5406 27.0093 12.7441 27.0874 12.9948C27.1688 13.2454 27.2095 13.5514 27.2095 13.9127V17.3063H25.9106V13.9078C25.9106 13.6507 25.8748 13.4537 25.8032 13.317C25.7349 13.1803 25.6356 13.0859 25.5054 13.0338C25.3752 12.9785 25.2222 12.9508 25.0464 12.9508C24.8674 12.9508 24.7111 12.985 24.5776 13.0533C24.4474 13.1184 24.3368 13.2096 24.2456 13.3268C24.1577 13.444 24.091 13.5807 24.0454 13.7369C24.0031 13.8899 23.9819 14.0559 23.9819 14.235ZM30.7397 17.4039C30.3394 17.4039 29.9797 17.3388 29.6606 17.2086C29.3416 17.0784 29.0698 16.8977 28.8452 16.6666C28.6239 16.4323 28.453 16.1604 28.3325 15.8512C28.2153 15.5387 28.1567 15.2034 28.1567 14.8453V14.65C28.1567 14.2431 28.2153 13.8737 28.3325 13.5416C28.4497 13.2063 28.6157 12.9183 28.8306 12.6774C29.0454 12.4365 29.3026 12.2509 29.6021 12.1207C29.9015 11.9905 30.2319 11.9254 30.5933 11.9254C30.9676 11.9254 31.298 11.9889 31.5845 12.1158C31.8709 12.2395 32.1102 12.4153 32.3022 12.6432C32.4943 12.8711 32.6392 13.1445 32.7368 13.4635C32.8345 13.7793 32.8833 14.1292 32.8833 14.5133V15.0553H28.7427V14.1666H31.6138V14.069C31.6073 13.8639 31.5682 13.6767 31.4966 13.5074C31.425 13.3349 31.3143 13.1982 31.1646 13.0973C31.0148 12.9931 30.8211 12.941 30.5835 12.941C30.3914 12.941 30.2238 12.9834 30.0806 13.068C29.9406 13.1494 29.8234 13.2666 29.729 13.4196C29.6379 13.5693 29.5695 13.7483 29.5239 13.9567C29.4784 14.165 29.4556 14.3961 29.4556 14.65V14.8453C29.4556 15.0667 29.4849 15.2718 29.5435 15.4606C29.6053 15.6494 29.6948 15.8138 29.812 15.9537C29.9325 16.0905 30.0757 16.1979 30.2417 16.276C30.411 16.3509 30.603 16.3883 30.8179 16.3883C31.0881 16.3883 31.3322 16.3362 31.5503 16.2321C31.7716 16.1246 31.9637 15.9668 32.1265 15.7584L32.7759 16.4323C32.6652 16.595 32.5155 16.7513 32.3267 16.901C32.1411 17.0507 31.9165 17.1728 31.6528 17.2672C31.3892 17.3584 31.0848 17.4039 30.7397 17.4039ZM35.0366 13.1022V17.3063H33.7476V12.0231H34.9683L35.0366 13.1022ZM36.6431 11.9889L36.6235 13.1901C36.5519 13.177 36.4705 13.1673 36.3794 13.1608C36.2915 13.1543 36.2085 13.151 36.1304 13.151C35.9318 13.151 35.7576 13.1787 35.6079 13.234C35.4582 13.2861 35.3328 13.3626 35.2319 13.4635C35.1343 13.5644 35.0594 13.6881 35.0073 13.8346C34.9552 13.9778 34.9259 14.1406 34.9194 14.3229L34.6411 14.2887C34.6411 13.9534 34.6753 13.6425 34.7437 13.3561C34.812 13.0696 34.9113 12.819 35.0415 12.6041C35.1717 12.3893 35.3345 12.2233 35.5298 12.1061C35.7284 11.9856 35.9562 11.9254 36.2134 11.9254C36.285 11.9254 36.3615 11.9319 36.4429 11.9449C36.5275 11.9547 36.5942 11.9694 36.6431 11.9889ZM39.4214 16.3883C39.6037 16.3883 39.7664 16.3525 39.9097 16.2809C40.0529 16.2093 40.1668 16.1084 40.2515 15.9781C40.3394 15.8479 40.3866 15.6966 40.3931 15.524H41.6089C41.6024 15.8821 41.5015 16.2028 41.3062 16.486C41.1108 16.7692 40.8504 16.9938 40.5249 17.1598C40.2026 17.3226 39.8413 17.4039 39.4409 17.4039C39.034 17.4039 38.6792 17.3356 38.3765 17.1989C38.0737 17.0621 37.8215 16.8717 37.6196 16.6276C37.4211 16.3834 37.2713 16.1002 37.1704 15.778C37.0728 15.4557 37.0239 15.1106 37.0239 14.7428V14.5865C37.0239 14.2187 37.0728 13.8737 37.1704 13.5514C37.2713 13.2291 37.4211 12.9459 37.6196 12.7018C37.8215 12.4576 38.0737 12.2672 38.3765 12.1305C38.6792 11.9938 39.0324 11.9254 39.436 11.9254C39.8625 11.9254 40.2368 12.0084 40.5591 12.1744C40.8846 12.3405 41.1385 12.5748 41.3208 12.8776C41.5063 13.1803 41.6024 13.5367 41.6089 13.9469H40.3931C40.3866 13.7581 40.3442 13.5888 40.2661 13.4391C40.188 13.2893 40.0773 13.1689 39.9341 13.0778C39.7909 12.9866 39.6167 12.941 39.4116 12.941C39.1935 12.941 39.0112 12.9866 38.8647 13.0778C38.7215 13.1689 38.6092 13.2942 38.5278 13.4537C38.4497 13.61 38.3944 13.7858 38.3618 13.9811C38.3325 14.1731 38.3179 14.375 38.3179 14.5865V14.7428C38.3179 14.9576 38.3325 15.1627 38.3618 15.358C38.3944 15.5533 38.4497 15.7291 38.5278 15.8854C38.6092 16.0384 38.7215 16.1604 38.8647 16.2516C39.0112 16.3427 39.1968 16.3883 39.4214 16.3883ZM43.8354 12.0231V17.3063H42.5415V12.0231H43.8354ZM42.4536 10.6412C42.4536 10.4492 42.5187 10.2897 42.6489 10.1627C42.7824 10.0358 42.9614 9.97229 43.186 9.97229C43.4106 9.97229 43.5881 10.0358 43.7183 10.1627C43.8517 10.2897 43.9185 10.4492 43.9185 10.6412C43.9185 10.83 43.8517 10.9879 43.7183 11.1149C43.5881 11.2418 43.4106 11.3053 43.186 11.3053C42.9614 11.3053 42.7824 11.2418 42.6489 11.1149C42.5187 10.9879 42.4536 10.83 42.4536 10.6412ZM47.9761 16.1832V13.7467C47.9761 13.5677 47.9451 13.413 47.8833 13.2828C47.8215 13.1526 47.7271 13.0517 47.6001 12.9801C47.4731 12.9085 47.312 12.8727 47.1167 12.8727C46.9442 12.8727 46.7928 12.902 46.6626 12.9606C46.5356 13.0192 46.438 13.1022 46.3696 13.2096C46.3013 13.3138 46.2671 13.4342 46.2671 13.5709H44.9731C44.9731 13.3528 45.0252 13.1461 45.1294 12.9508C45.2336 12.7522 45.3817 12.5765 45.5737 12.4235C45.769 12.2672 46.0018 12.1451 46.272 12.0573C46.5454 11.9694 46.8514 11.9254 47.1899 11.9254C47.5903 11.9254 47.9468 11.9938 48.2593 12.1305C48.575 12.264 48.8224 12.4658 49.0015 12.736C49.1838 13.0061 49.2749 13.3463 49.2749 13.7565V16.0612C49.2749 16.3248 49.2912 16.5511 49.3237 16.7399C49.3595 16.9254 49.4116 17.0865 49.48 17.2233V17.3063H48.1665C48.1047 17.1728 48.0575 17.0035 48.0249 16.7985C47.9924 16.5901 47.9761 16.3851 47.9761 16.1832ZM48.1567 14.0885L48.1665 14.8551H47.3511C47.1493 14.8551 46.9718 14.8763 46.8188 14.9186C46.6659 14.9576 46.5405 15.0162 46.4429 15.0944C46.3452 15.1692 46.272 15.2604 46.2231 15.3678C46.1743 15.472 46.1499 15.5908 46.1499 15.7242C46.1499 15.8545 46.1792 15.9716 46.2378 16.0758C46.2996 16.18 46.3875 16.263 46.5015 16.3248C46.6187 16.3834 46.7554 16.4127 46.9116 16.4127C47.1395 16.4127 47.3381 16.3671 47.5073 16.276C47.6766 16.1816 47.8084 16.0677 47.9028 15.9342C47.9972 15.8007 48.0477 15.6738 48.0542 15.5533L48.4253 16.11C48.3797 16.2434 48.3114 16.3851 48.2202 16.5348C48.1291 16.6845 48.0119 16.8245 47.8687 16.9547C47.7254 17.0849 47.5529 17.1923 47.3511 17.277C47.1493 17.3616 46.9149 17.4039 46.6479 17.4039C46.3062 17.4039 46.0002 17.3356 45.73 17.1989C45.4598 17.0621 45.2466 16.875 45.0903 16.6373C44.9341 16.3997 44.856 16.1295 44.856 15.8268C44.856 15.5468 44.908 15.2994 45.0122 15.0846C45.1164 14.8698 45.271 14.6891 45.4761 14.5426C45.6812 14.3929 45.9351 14.2806 46.2378 14.2057C46.5438 14.1276 46.8937 14.0885 47.2876 14.0885H48.1567ZM51.8042 9.80627V17.3063H50.5103V9.80627H51.8042Z" fill="#0D15D7"/>
</svg>
