<svg width="60" height="28" viewBox="0 0 60 28" fill="none" xmlns="http://www.w3.org/2000/svg">
<rect x="0.5" y="0.978271" width="58.0331" height="25.5649" rx="4.5" fill="#FBAD82" stroke="#FF5C00"/>
<path d="M26.3599 10.24V17.3494H25.022V10.24H26.3599ZM28.5669 10.24V11.2996H22.8394V10.24H28.5669ZM34.1089 16.3337V17.3494H29.2944V16.4802L31.604 13.9851C31.8449 13.7117 32.0353 13.474 32.1753 13.2722C32.3153 13.0704 32.4146 12.8881 32.4731 12.7253C32.535 12.5593 32.5659 12.4014 32.5659 12.2517C32.5659 12.0336 32.5269 11.8432 32.4487 11.6804C32.3706 11.5144 32.2567 11.3858 32.1069 11.2947C31.9604 11.2035 31.7798 11.158 31.5649 11.158C31.3273 11.158 31.1239 11.2133 30.9546 11.324C30.7886 11.4314 30.6616 11.5811 30.5737 11.7732C30.4891 11.9653 30.4468 12.185 30.4468 12.4324H29.1528C29.1528 12.0125 29.2505 11.63 29.4458 11.2849C29.6411 10.9366 29.9211 10.6583 30.2856 10.45C30.6502 10.2416 31.0832 10.1375 31.5845 10.1375C32.0728 10.1375 32.4862 10.2188 32.8247 10.3816C33.1632 10.5411 33.4204 10.769 33.5962 11.0652C33.772 11.3614 33.8599 11.7146 33.8599 12.1248C33.8599 12.3526 33.8224 12.5772 33.7476 12.7986C33.6727 13.0199 33.5669 13.2397 33.4302 13.4578C33.2967 13.6726 33.1372 13.8907 32.9517 14.1121C32.7661 14.3334 32.5594 14.5597 32.3315 14.7908L30.9448 16.3337H34.1089Z" fill="#FF5C00"/>
</svg>
