<svg width="60" height="28" viewBox="0 0 60 28" fill="none" xmlns="http://www.w3.org/2000/svg">
<rect x="0.5" y="1.45679" width="58.0331" height="25.5649" rx="4.5" fill="#F5ADD0" stroke="#FF007A"/>
<path d="M26.3599 10.7185V17.8279H25.022V10.7185H26.3599ZM28.5669 10.7185V11.7781H22.8394V10.7185H28.5669ZM30.7056 13.7019H31.4331C31.6903 13.7019 31.9019 13.658 32.0679 13.5701C32.2371 13.4789 32.3625 13.3552 32.4438 13.199C32.5285 13.0395 32.5708 12.8556 32.5708 12.6472C32.5708 12.4421 32.5334 12.2647 32.4585 12.115C32.3836 11.962 32.2697 11.8448 32.1167 11.7634C31.967 11.6788 31.7749 11.6365 31.5405 11.6365C31.3517 11.6365 31.1776 11.6739 31.0181 11.7488C30.8618 11.8236 30.7365 11.9311 30.6421 12.071C30.5509 12.2078 30.5054 12.3722 30.5054 12.5642H29.2114C29.2114 12.1801 29.3123 11.8432 29.5142 11.5535C29.7192 11.2605 29.9959 11.031 30.3442 10.865C30.6925 10.699 31.0815 10.616 31.5112 10.616C31.98 10.616 32.3901 10.6941 32.7417 10.8503C33.0965 11.0033 33.3716 11.2296 33.5669 11.5291C33.7655 11.8285 33.8647 12.1996 33.8647 12.6423C33.8647 12.8539 33.8143 13.0655 33.7134 13.2771C33.6157 13.4854 33.4709 13.6742 33.2788 13.8435C33.09 14.0095 32.8573 14.1446 32.5806 14.2488C32.3071 14.3497 31.993 14.4001 31.6382 14.4001H30.7056V13.7019ZM30.7056 14.698V14.0095H31.6382C32.0386 14.0095 32.3853 14.0567 32.6782 14.1511C32.9744 14.2423 33.2186 14.3725 33.4106 14.5417C33.6027 14.7078 33.7443 14.9014 33.8354 15.1228C33.9299 15.3442 33.9771 15.5818 33.9771 15.8357C33.9771 16.1677 33.9152 16.4639 33.7915 16.7244C33.6678 16.9815 33.4937 17.1996 33.269 17.3787C33.0477 17.5577 32.7873 17.6944 32.4878 17.7888C32.1883 17.88 31.8644 17.9255 31.5161 17.9255C31.2134 17.9255 30.9188 17.8848 30.6323 17.8035C30.3491 17.7188 30.0936 17.5935 29.8657 17.4275C29.6379 17.2582 29.4572 17.0466 29.3237 16.7927C29.1903 16.5356 29.1235 16.2377 29.1235 15.8992H30.4175C30.4175 16.0945 30.4647 16.2686 30.5591 16.4216C30.6567 16.5746 30.7902 16.6951 30.9595 16.783C31.132 16.8676 31.3257 16.9099 31.5405 16.9099C31.7782 16.9099 31.9816 16.8676 32.1509 16.783C32.3234 16.6951 32.4552 16.5714 32.5464 16.4119C32.6375 16.2491 32.6831 16.0554 32.6831 15.8308C32.6831 15.5639 32.6326 15.3474 32.5317 15.1814C32.4308 15.0154 32.286 14.8933 32.0972 14.8152C31.9116 14.7371 31.6903 14.698 31.4331 14.698H30.7056Z" fill="#FF007A"/>
</svg>
