<svg width="97" height="43" viewBox="0 0 97 43" fill="none" xmlns="http://www.w3.org/2000/svg">
<rect x="0.5" y="0.5" width="96" height="42" rx="4.5" fill="#AAACD5" stroke="#0D15D7"/>
<path d="M25.5859 18.1406L22.1875 28H20.1328L24.4141 16.625H25.7266L25.5859 18.1406ZM28.4297 28L25.0234 18.1406L24.875 16.625H26.1953L30.4922 28H28.4297ZM28.2656 23.7812V25.3359H22.0781V23.7812H28.2656ZM33.5938 16V28H31.7031V16H33.5938ZM37.5391 21.2656V28H35.6562V19.5469H37.4297L37.5391 21.2656ZM37.2344 23.4609L36.5938 23.4531C36.5938 22.8698 36.6667 22.3307 36.8125 21.8359C36.9583 21.3411 37.1719 20.9115 37.4531 20.5469C37.7344 20.1771 38.0833 19.8932 38.5 19.6953C38.9219 19.4922 39.4089 19.3906 39.9609 19.3906C40.3464 19.3906 40.6979 19.4479 41.0156 19.5625C41.3385 19.6719 41.6172 19.8464 41.8516 20.0859C42.0911 20.3255 42.2734 20.6328 42.3984 21.0078C42.5286 21.3828 42.5938 21.8359 42.5938 22.3672V28H40.7109V22.5312C40.7109 22.1198 40.6484 21.7969 40.5234 21.5625C40.4036 21.3281 40.2292 21.1615 40 21.0625C39.776 20.9583 39.5078 20.9062 39.1953 20.9062C38.8411 20.9062 38.5391 20.974 38.2891 21.1094C38.0443 21.2448 37.8438 21.4297 37.6875 21.6641C37.5312 21.8984 37.4167 22.1693 37.3438 22.4766C37.2708 22.7839 37.2344 23.112 37.2344 23.4609ZM42.4766 22.9609L41.5938 23.1562C41.5938 22.6458 41.6641 22.1641 41.8047 21.7109C41.9505 21.2526 42.1615 20.8516 42.4375 20.5078C42.7188 20.1589 43.0651 19.8854 43.4766 19.6875C43.888 19.4896 44.3594 19.3906 44.8906 19.3906C45.3229 19.3906 45.7083 19.4505 46.0469 19.5703C46.3906 19.6849 46.6823 19.8672 46.9219 20.1172C47.1615 20.3672 47.3438 20.6927 47.4688 21.0938C47.5938 21.4896 47.6562 21.9688 47.6562 22.5312V28H45.7656V22.5234C45.7656 22.0964 45.7031 21.7656 45.5781 21.5312C45.4583 21.2969 45.2865 21.1354 45.0625 21.0469C44.8385 20.9531 44.5703 20.9062 44.2578 20.9062C43.9661 20.9062 43.7083 20.9609 43.4844 21.0703C43.2656 21.1745 43.0807 21.3229 42.9297 21.5156C42.7786 21.7031 42.6641 21.9193 42.5859 22.1641C42.513 22.4089 42.4766 22.6745 42.4766 22.9609ZM49.2344 23.8672V23.6875C49.2344 23.0781 49.3229 22.513 49.5 21.9922C49.6771 21.4661 49.9323 21.0104 50.2656 20.625C50.6042 20.2344 51.0156 19.9323 51.5 19.7188C51.9896 19.5 52.5417 19.3906 53.1562 19.3906C53.776 19.3906 54.3281 19.5 54.8125 19.7188C55.3021 19.9323 55.7161 20.2344 56.0547 20.625C56.3932 21.0104 56.651 21.4661 56.8281 21.9922C57.0052 22.513 57.0938 23.0781 57.0938 23.6875V23.8672C57.0938 24.4766 57.0052 25.0417 56.8281 25.5625C56.651 26.0833 56.3932 26.5391 56.0547 26.9297C55.7161 27.3151 55.3047 27.6172 54.8203 27.8359C54.3359 28.0495 53.7865 28.1562 53.1719 28.1562C52.5521 28.1562 51.9974 28.0495 51.5078 27.8359C51.0234 27.6172 50.612 27.3151 50.2734 26.9297C49.9349 26.5391 49.6771 26.0833 49.5 25.5625C49.3229 25.0417 49.2344 24.4766 49.2344 23.8672ZM51.1172 23.6875V23.8672C51.1172 24.2474 51.1562 24.6068 51.2344 24.9453C51.3125 25.2839 51.4349 25.5807 51.6016 25.8359C51.7682 26.0911 51.9818 26.2917 52.2422 26.4375C52.5026 26.5833 52.8125 26.6562 53.1719 26.6562C53.5208 26.6562 53.8229 26.5833 54.0781 26.4375C54.3385 26.2917 54.5521 26.0911 54.7188 25.8359C54.8854 25.5807 55.0078 25.2839 55.0859 24.9453C55.1693 24.6068 55.2109 24.2474 55.2109 23.8672V23.6875C55.2109 23.3125 55.1693 22.9583 55.0859 22.625C55.0078 22.2865 54.8828 21.987 54.7109 21.7266C54.5443 21.4661 54.3307 21.263 54.0703 21.1172C53.8151 20.9661 53.5104 20.8906 53.1562 20.8906C52.8021 20.8906 52.4948 20.9661 52.2344 21.1172C51.9792 21.263 51.7682 21.4661 51.6016 21.7266C51.4349 21.987 51.3125 22.2865 51.2344 22.625C51.1562 22.9583 51.1172 23.3125 51.1172 23.6875ZM62.125 26.6562C62.4323 26.6562 62.7083 26.5964 62.9531 26.4766C63.2031 26.3516 63.4036 26.1797 63.5547 25.9609C63.7109 25.7422 63.7969 25.4896 63.8125 25.2031H65.5859C65.5755 25.75 65.4141 26.2474 65.1016 26.6953C64.7891 27.1432 64.375 27.5 63.8594 27.7656C63.3438 28.026 62.7734 28.1562 62.1484 28.1562C61.5026 28.1562 60.9401 28.0469 60.4609 27.8281C59.9818 27.6042 59.5833 27.2969 59.2656 26.9062C58.9479 26.5156 58.7083 26.0651 58.5469 25.5547C58.3906 25.0443 58.3125 24.4974 58.3125 23.9141V23.6406C58.3125 23.0573 58.3906 22.5104 58.5469 22C58.7083 21.4844 58.9479 21.0312 59.2656 20.6406C59.5833 20.25 59.9818 19.9453 60.4609 19.7266C60.9401 19.5026 61.5 19.3906 62.1406 19.3906C62.8177 19.3906 63.4115 19.526 63.9219 19.7969C64.4323 20.0625 64.8333 20.4349 65.125 20.9141C65.4219 21.388 65.5755 21.9401 65.5859 22.5703H63.8125C63.7969 22.2578 63.7188 21.9766 63.5781 21.7266C63.4427 21.4714 63.25 21.2682 63 21.1172C62.7552 20.9661 62.4609 20.8906 62.1172 20.8906C61.737 20.8906 61.4219 20.9688 61.1719 21.125C60.9219 21.276 60.7266 21.4844 60.5859 21.75C60.4453 22.0104 60.3438 22.3047 60.2812 22.6328C60.224 22.9557 60.1953 23.2917 60.1953 23.6406V23.9141C60.1953 24.263 60.224 24.6016 60.2812 24.9297C60.3385 25.2578 60.4375 25.5521 60.5781 25.8125C60.724 26.0677 60.9219 26.2734 61.1719 26.4297C61.4219 26.5807 61.7396 26.6562 62.125 26.6562ZM61.2969 28.0156H62.6953L62.6016 28.4531C62.8984 28.5052 63.1693 28.6302 63.4141 28.8281C63.6641 29.0312 63.7891 29.3568 63.7891 29.8047C63.7891 30.0703 63.7344 30.3099 63.625 30.5234C63.5156 30.737 63.3516 30.9193 63.1328 31.0703C62.9193 31.2266 62.651 31.3464 62.3281 31.4297C62.0104 31.513 61.6406 31.5547 61.2188 31.5547L61.1641 30.4922C61.3672 30.4922 61.5495 30.4661 61.7109 30.4141C61.8724 30.3672 62 30.2917 62.0938 30.1875C62.1927 30.0833 62.2422 29.9479 62.2422 29.7812C62.2422 29.6198 62.2005 29.4948 62.1172 29.4062C62.0339 29.3177 61.9036 29.25 61.7266 29.2031C61.5547 29.1562 61.3307 29.1224 61.0547 29.1016L61.2969 28.0156ZM66.6719 23.8672V23.6875C66.6719 23.0781 66.7604 22.513 66.9375 21.9922C67.1146 21.4661 67.3698 21.0104 67.7031 20.625C68.0417 20.2344 68.4531 19.9323 68.9375 19.7188C69.4271 19.5 69.9792 19.3906 70.5938 19.3906C71.2135 19.3906 71.7656 19.5 72.25 19.7188C72.7396 19.9323 73.1536 20.2344 73.4922 20.625C73.8307 21.0104 74.0885 21.4661 74.2656 21.9922C74.4427 22.513 74.5312 23.0781 74.5312 23.6875V23.8672C74.5312 24.4766 74.4427 25.0417 74.2656 25.5625C74.0885 26.0833 73.8307 26.5391 73.4922 26.9297C73.1536 27.3151 72.7422 27.6172 72.2578 27.8359C71.7734 28.0495 71.224 28.1562 70.6094 28.1562C69.9896 28.1562 69.4349 28.0495 68.9453 27.8359C68.4609 27.6172 68.0495 27.3151 67.7109 26.9297C67.3724 26.5391 67.1146 26.0833 66.9375 25.5625C66.7604 25.0417 66.6719 24.4766 66.6719 23.8672ZM68.5547 23.6875V23.8672C68.5547 24.2474 68.5938 24.6068 68.6719 24.9453C68.75 25.2839 68.8724 25.5807 69.0391 25.8359C69.2057 26.0911 69.4193 26.2917 69.6797 26.4375C69.9401 26.5833 70.25 26.6562 70.6094 26.6562C70.9583 26.6562 71.2604 26.5833 71.5156 26.4375C71.776 26.2917 71.9896 26.0911 72.1562 25.8359C72.3229 25.5807 72.4453 25.2839 72.5234 24.9453C72.6068 24.6068 72.6484 24.2474 72.6484 23.8672V23.6875C72.6484 23.3125 72.6068 22.9583 72.5234 22.625C72.4453 22.2865 72.3203 21.987 72.1484 21.7266C71.9818 21.4661 71.7682 21.263 71.5078 21.1172C71.2526 20.9661 70.9479 20.8906 70.5938 20.8906C70.2396 20.8906 69.9323 20.9661 69.6719 21.1172C69.4167 21.263 69.2057 21.4661 69.0391 21.7266C68.8724 21.987 68.75 22.2865 68.6719 22.625C68.5938 22.9583 68.5547 23.3125 68.5547 23.6875Z" fill="#0D15D7"/>
</svg>
