<svg width="97" height="43" viewBox="0 0 97 43" fill="none" xmlns="http://www.w3.org/2000/svg">
<rect x="0.5" y="0.5" width="96" height="42" rx="4.5" fill="#EAB5E8" stroke="#E011D8"/>
<path d="M23.5859 17.1406L20.1875 27H18.1328L22.4141 15.625H23.7266L23.5859 17.1406ZM26.4297 27L23.0234 17.1406L22.875 15.625H24.1953L28.4922 27H26.4297ZM26.2656 22.7812V24.3359H20.0781V22.7812H26.2656ZM34.5703 25.0078V18.5469H36.4609V27H34.6797L34.5703 25.0078ZM34.8359 23.25L35.4688 23.2344C35.4688 23.8021 35.4062 24.3255 35.2812 24.8047C35.1562 25.2786 34.9635 25.6927 34.7031 26.0469C34.4427 26.3958 34.1094 26.6693 33.7031 26.8672C33.2969 27.0599 32.8099 27.1562 32.2422 27.1562C31.8307 27.1562 31.4531 27.0964 31.1094 26.9766C30.7656 26.8568 30.4688 26.6719 30.2188 26.4219C29.974 26.1719 29.7839 25.8464 29.6484 25.4453C29.513 25.0443 29.4453 24.5651 29.4453 24.0078V18.5469H31.3281V24.0234C31.3281 24.3307 31.3646 24.5885 31.4375 24.7969C31.5104 25 31.6094 25.1641 31.7344 25.2891C31.8594 25.4141 32.0052 25.5026 32.1719 25.5547C32.3385 25.6068 32.5156 25.6328 32.7031 25.6328C33.2396 25.6328 33.6615 25.5286 33.9688 25.3203C34.2812 25.1068 34.5026 24.8203 34.6328 24.4609C34.7682 24.1016 34.8359 23.6979 34.8359 23.25ZM43.1328 24.7109C43.1328 24.5234 43.0859 24.3542 42.9922 24.2031C42.8984 24.0469 42.7188 23.9062 42.4531 23.7812C42.1927 23.6562 41.8073 23.5417 41.2969 23.4375C40.849 23.3385 40.4375 23.2214 40.0625 23.0859C39.6927 22.9453 39.375 22.776 39.1094 22.5781C38.8438 22.3802 38.638 22.1458 38.4922 21.875C38.3464 21.6042 38.2734 21.2917 38.2734 20.9375C38.2734 20.5938 38.349 20.2682 38.5 19.9609C38.651 19.6536 38.8672 19.3828 39.1484 19.1484C39.4297 18.9141 39.7708 18.7292 40.1719 18.5938C40.5781 18.4583 41.0312 18.3906 41.5312 18.3906C42.2396 18.3906 42.8464 18.5104 43.3516 18.75C43.862 18.9844 44.2526 19.3047 44.5234 19.7109C44.7943 20.112 44.9297 20.5651 44.9297 21.0703H43.0469C43.0469 20.8464 42.9896 20.638 42.875 20.4453C42.7656 20.2474 42.599 20.0885 42.375 19.9688C42.151 19.8438 41.8698 19.7812 41.5312 19.7812C41.2083 19.7812 40.9401 19.8333 40.7266 19.9375C40.5182 20.0365 40.362 20.1667 40.2578 20.3281C40.1589 20.4896 40.1094 20.6667 40.1094 20.8594C40.1094 21 40.1354 21.1276 40.1875 21.2422C40.2448 21.3516 40.3385 21.4531 40.4688 21.5469C40.599 21.6354 40.776 21.7188 41 21.7969C41.2292 21.875 41.5156 21.9505 41.8594 22.0234C42.5052 22.1589 43.0599 22.3333 43.5234 22.5469C43.9922 22.7552 44.3516 23.026 44.6016 23.3594C44.8516 23.6875 44.9766 24.1042 44.9766 24.6094C44.9766 24.9844 44.8958 25.3281 44.7344 25.6406C44.5781 25.9479 44.349 26.2161 44.0469 26.4453C43.7448 26.6693 43.3828 26.8438 42.9609 26.9688C42.5443 27.0938 42.0755 27.1562 41.5547 27.1562C40.7891 27.1562 40.1406 27.0208 39.6094 26.75C39.0781 26.474 38.6745 26.1224 38.3984 25.6953C38.1276 25.263 37.9922 24.8151 37.9922 24.3516H39.8125C39.8333 24.7005 39.9297 24.9792 40.1016 25.1875C40.2786 25.3906 40.4974 25.5391 40.7578 25.6328C41.0234 25.7214 41.2969 25.7656 41.5781 25.7656C41.9167 25.7656 42.2005 25.7214 42.4297 25.6328C42.6589 25.5391 42.8333 25.4141 42.9531 25.2578C43.0729 25.0964 43.1328 24.9141 43.1328 24.7109ZM50.3516 27.1562C49.7266 27.1562 49.1615 27.0547 48.6562 26.8516C48.1562 26.6432 47.7292 26.3542 47.375 25.9844C47.026 25.6146 46.7578 25.1797 46.5703 24.6797C46.3828 24.1797 46.2891 23.6406 46.2891 23.0625V22.75C46.2891 22.0885 46.3854 21.4896 46.5781 20.9531C46.7708 20.4167 47.0391 19.9583 47.3828 19.5781C47.7266 19.1927 48.1328 18.8984 48.6016 18.6953C49.0703 18.4922 49.5781 18.3906 50.125 18.3906C50.7292 18.3906 51.2578 18.4922 51.7109 18.6953C52.1641 18.8984 52.5391 19.1849 52.8359 19.5547C53.138 19.9193 53.362 20.3542 53.5078 20.8594C53.6589 21.3646 53.7344 21.9219 53.7344 22.5312V23.3359H47.2031V21.9844H51.875V21.8359C51.8646 21.4974 51.7969 21.1797 51.6719 20.8828C51.5521 20.5859 51.3672 20.3464 51.1172 20.1641C50.8672 19.9818 50.5339 19.8906 50.1172 19.8906C49.8047 19.8906 49.526 19.9583 49.2812 20.0938C49.0417 20.224 48.8411 20.4141 48.6797 20.6641C48.5182 20.9141 48.3932 21.2161 48.3047 21.5703C48.2214 21.9193 48.1797 22.3125 48.1797 22.75V23.0625C48.1797 23.4323 48.2292 23.776 48.3281 24.0938C48.4323 24.4062 48.5833 24.6797 48.7812 24.9141C48.9792 25.1484 49.2188 25.3333 49.5 25.4688C49.7812 25.599 50.1016 25.6641 50.4609 25.6641C50.9141 25.6641 51.3177 25.5729 51.6719 25.3906C52.026 25.2083 52.3333 24.9505 52.5938 24.6172L53.5859 25.5781C53.4036 25.8438 53.1667 26.099 52.875 26.3438C52.5833 26.5833 52.2266 26.7786 51.8047 26.9297C51.388 27.0807 50.9036 27.1562 50.3516 27.1562ZM57.0703 20.3516V27H55.1875V18.5469H56.9609L57.0703 20.3516ZM56.7344 22.4609L56.125 22.4531C56.1302 21.8542 56.2135 21.3047 56.375 20.8047C56.5417 20.3047 56.7708 19.875 57.0625 19.5156C57.3594 19.1562 57.7135 18.8802 58.125 18.6875C58.5365 18.4896 58.9948 18.3906 59.5 18.3906C59.9062 18.3906 60.2734 18.4479 60.6016 18.5625C60.9349 18.6719 61.2188 18.8516 61.4531 19.1016C61.6927 19.3516 61.875 19.6771 62 20.0781C62.125 20.474 62.1875 20.9609 62.1875 21.5391V27H60.2969V21.5312C60.2969 21.125 60.237 20.8047 60.1172 20.5703C60.0026 20.3307 59.8333 20.1615 59.6094 20.0625C59.3906 19.9583 59.1172 19.9062 58.7891 19.9062C58.4661 19.9062 58.1771 19.974 57.9219 20.1094C57.6667 20.2448 57.4505 20.4297 57.2734 20.6641C57.1016 20.8984 56.9688 21.1693 56.875 21.4766C56.7812 21.7839 56.7344 22.112 56.7344 22.4609ZM67.9844 18.5469V19.9219H63.2188V18.5469H67.9844ZM64.5938 16.4766H66.4766V24.6641C66.4766 24.9245 66.513 25.125 66.5859 25.2656C66.6641 25.401 66.7708 25.4922 66.9062 25.5391C67.0417 25.5859 67.2005 25.6094 67.3828 25.6094C67.513 25.6094 67.638 25.6016 67.7578 25.5859C67.8776 25.5703 67.974 25.5547 68.0469 25.5391L68.0547 26.9766C67.8984 27.0234 67.7161 27.0651 67.5078 27.1016C67.3047 27.138 67.0703 27.1562 66.8047 27.1562C66.3724 27.1562 65.9896 27.0807 65.6562 26.9297C65.3229 26.7734 65.0625 26.5208 64.875 26.1719C64.6875 25.8229 64.5938 25.3594 64.5938 24.7812V16.4766ZM73.1641 27.1562C72.5391 27.1562 71.974 27.0547 71.4688 26.8516C70.9688 26.6432 70.5417 26.3542 70.1875 25.9844C69.8385 25.6146 69.5703 25.1797 69.3828 24.6797C69.1953 24.1797 69.1016 23.6406 69.1016 23.0625V22.75C69.1016 22.0885 69.1979 21.4896 69.3906 20.9531C69.5833 20.4167 69.8516 19.9583 70.1953 19.5781C70.5391 19.1927 70.9453 18.8984 71.4141 18.6953C71.8828 18.4922 72.3906 18.3906 72.9375 18.3906C73.5417 18.3906 74.0703 18.4922 74.5234 18.6953C74.9766 18.8984 75.3516 19.1849 75.6484 19.5547C75.9505 19.9193 76.1745 20.3542 76.3203 20.8594C76.4714 21.3646 76.5469 21.9219 76.5469 22.5312V23.3359H70.0156V21.9844H74.6875V21.8359C74.6771 21.4974 74.6094 21.1797 74.4844 20.8828C74.3646 20.5859 74.1797 20.3464 73.9297 20.1641C73.6797 19.9818 73.3464 19.8906 72.9297 19.8906C72.6172 19.8906 72.3385 19.9583 72.0938 20.0938C71.8542 20.224 71.6536 20.4141 71.4922 20.6641C71.3307 20.9141 71.2057 21.2161 71.1172 21.5703C71.0339 21.9193 70.9922 22.3125 70.9922 22.75V23.0625C70.9922 23.4323 71.0417 23.776 71.1406 24.0938C71.2448 24.4062 71.3958 24.6797 71.5938 24.9141C71.7917 25.1484 72.0312 25.3333 72.3125 25.4688C72.5938 25.599 72.9141 25.6641 73.2734 25.6641C73.7266 25.6641 74.1302 25.5729 74.4844 25.3906C74.8385 25.2083 75.1458 24.9505 75.4062 24.6172L76.3984 25.5781C76.2161 25.8438 75.9792 26.099 75.6875 26.3438C75.3958 26.5833 75.0391 26.7786 74.6172 26.9297C74.2005 27.0807 73.7161 27.1562 73.1641 27.1562Z" fill="#E011D8"/>
</svg>
