<svg width="97" height="43" viewBox="0 0 97 43" fill="none" xmlns="http://www.w3.org/2000/svg">
<rect x="0.5" y="0.5" width="96" height="42" rx="4.5" fill="#EEEEEE" stroke="#9F9F9F"/>
<path d="M29.1172 16.625V28H27.1562V16.625H29.1172ZM33.7578 21.6016V23.1562H28.6172V21.6016H33.7578ZM34.4062 16.625V18.1875H28.6172V16.625H34.4062ZM39.3359 28.1562C38.7109 28.1562 38.1458 28.0547 37.6406 27.8516C37.1406 27.6432 36.7135 27.3542 36.3594 26.9844C36.0104 26.6146 35.7422 26.1797 35.5547 25.6797C35.3672 25.1797 35.2734 24.6406 35.2734 24.0625V23.75C35.2734 23.0885 35.3698 22.4896 35.5625 21.9531C35.7552 21.4167 36.0234 20.9583 36.3672 20.5781C36.7109 20.1927 37.1172 19.8984 37.5859 19.6953C38.0547 19.4922 38.5625 19.3906 39.1094 19.3906C39.7135 19.3906 40.2422 19.4922 40.6953 19.6953C41.1484 19.8984 41.5234 20.1849 41.8203 20.5547C42.1224 20.9193 42.3464 21.3542 42.4922 21.8594C42.6432 22.3646 42.7188 22.9219 42.7188 23.5312V24.3359H36.1875V22.9844H40.8594V22.8359C40.849 22.4974 40.7812 22.1797 40.6562 21.8828C40.5365 21.5859 40.3516 21.3464 40.1016 21.1641C39.8516 20.9818 39.5182 20.8906 39.1016 20.8906C38.7891 20.8906 38.5104 20.9583 38.2656 21.0938C38.026 21.224 37.8255 21.4141 37.6641 21.6641C37.5026 21.9141 37.3776 22.2161 37.2891 22.5703C37.2057 22.9193 37.1641 23.3125 37.1641 23.75V24.0625C37.1641 24.4323 37.2135 24.776 37.3125 25.0938C37.4167 25.4062 37.5677 25.6797 37.7656 25.9141C37.9635 26.1484 38.2031 26.3333 38.4844 26.4688C38.7656 26.599 39.0859 26.6641 39.4453 26.6641C39.8984 26.6641 40.3021 26.5729 40.6562 26.3906C41.0104 26.2083 41.3177 25.9505 41.5781 25.6172L42.5703 26.5781C42.388 26.8438 42.151 27.099 41.8594 27.3438C41.5677 27.5833 41.2109 27.7786 40.7891 27.9297C40.3724 28.0807 39.888 28.1562 39.3359 28.1562ZM38.0234 18.3516L39.5469 16H41.6719L39.5469 18.3516H38.0234ZM46.0781 21.1562V28H44.1953V19.5469H45.9922L46.0781 21.1562ZM48.6641 19.4922L48.6484 21.2422C48.5339 21.2214 48.4089 21.2057 48.2734 21.1953C48.1432 21.1849 48.013 21.1797 47.8828 21.1797C47.5599 21.1797 47.276 21.2266 47.0312 21.3203C46.7865 21.4089 46.5807 21.5391 46.4141 21.7109C46.2526 21.8776 46.1276 22.0807 46.0391 22.3203C45.9505 22.5599 45.8984 22.8281 45.8828 23.125L45.4531 23.1562C45.4531 22.625 45.5052 22.1328 45.6094 21.6797C45.7135 21.2266 45.8698 20.8281 46.0781 20.4844C46.2917 20.1406 46.5573 19.8724 46.875 19.6797C47.1979 19.487 47.5703 19.3906 47.9922 19.3906C48.1068 19.3906 48.2292 19.401 48.3594 19.4219C48.4948 19.4427 48.5964 19.4661 48.6641 19.4922ZM51.8594 19.5469V28H49.9688V19.5469H51.8594ZM49.8438 17.3281C49.8438 17.0417 49.9375 16.8047 50.125 16.6172C50.3177 16.4245 50.5833 16.3281 50.9219 16.3281C51.2552 16.3281 51.5182 16.4245 51.7109 16.6172C51.9036 16.8047 52 17.0417 52 17.3281C52 17.6094 51.9036 17.8438 51.7109 18.0312C51.5182 18.2188 51.2552 18.3125 50.9219 18.3125C50.5833 18.3125 50.3177 18.2188 50.125 18.0312C49.9375 17.8438 49.8438 17.6094 49.8438 17.3281ZM58.6875 26.3047V22.2734C58.6875 21.9714 58.6328 21.7109 58.5234 21.4922C58.4141 21.2734 58.2474 21.1042 58.0234 20.9844C57.8047 20.8646 57.5286 20.8047 57.1953 20.8047C56.888 20.8047 56.6224 20.8568 56.3984 20.9609C56.1745 21.0651 56 21.2057 55.875 21.3828C55.75 21.5599 55.6875 21.7604 55.6875 21.9844H53.8125C53.8125 21.651 53.8932 21.3281 54.0547 21.0156C54.2161 20.7031 54.4505 20.4245 54.7578 20.1797C55.0651 19.9349 55.4323 19.7422 55.8594 19.6016C56.2865 19.4609 56.7656 19.3906 57.2969 19.3906C57.9323 19.3906 58.4948 19.4974 58.9844 19.7109C59.4792 19.9245 59.8672 20.2474 60.1484 20.6797C60.4349 21.1068 60.5781 21.6432 60.5781 22.2891V26.0469C60.5781 26.4323 60.6042 26.7786 60.6562 27.0859C60.7135 27.388 60.7943 27.651 60.8984 27.875V28H58.9688C58.8802 27.7969 58.8099 27.5391 58.7578 27.2266C58.7109 26.9089 58.6875 26.6016 58.6875 26.3047ZM58.9609 22.8594L58.9766 24.0234H57.625C57.276 24.0234 56.9688 24.0573 56.7031 24.125C56.4375 24.1875 56.2161 24.2812 56.0391 24.4062C55.862 24.5312 55.7292 24.6823 55.6406 24.8594C55.5521 25.0365 55.5078 25.237 55.5078 25.4609C55.5078 25.6849 55.5599 25.8906 55.6641 26.0781C55.7682 26.2604 55.9193 26.4036 56.1172 26.5078C56.3203 26.612 56.5651 26.6641 56.8516 26.6641C57.237 26.6641 57.5729 26.5859 57.8594 26.4297C58.151 26.2682 58.3802 26.0729 58.5469 25.8438C58.7135 25.6094 58.8021 25.388 58.8125 25.1797L59.4219 26.0156C59.3594 26.2292 59.2526 26.4583 59.1016 26.7031C58.9505 26.9479 58.7526 27.1823 58.5078 27.4062C58.2682 27.625 57.9792 27.8047 57.6406 27.9453C57.3073 28.0859 56.9219 28.1562 56.4844 28.1562C55.9323 28.1562 55.4401 28.0469 55.0078 27.8281C54.5755 27.6042 54.237 27.3047 53.9922 26.9297C53.7474 26.5495 53.625 26.1198 53.625 25.6406C53.625 25.1927 53.7083 24.7969 53.875 24.4531C54.0469 24.1042 54.2969 23.8125 54.625 23.5781C54.9583 23.3438 55.3646 23.1667 55.8438 23.0469C56.3229 22.9219 56.8698 22.8594 57.4844 22.8594H58.9609ZM67.2891 25.7109C67.2891 25.5234 67.2422 25.3542 67.1484 25.2031C67.0547 25.0469 66.875 24.9062 66.6094 24.7812C66.349 24.6562 65.9635 24.5417 65.4531 24.4375C65.0052 24.3385 64.5938 24.2214 64.2188 24.0859C63.849 23.9453 63.5312 23.776 63.2656 23.5781C63 23.3802 62.7943 23.1458 62.6484 22.875C62.5026 22.6042 62.4297 22.2917 62.4297 21.9375C62.4297 21.5938 62.5052 21.2682 62.6562 20.9609C62.8073 20.6536 63.0234 20.3828 63.3047 20.1484C63.5859 19.9141 63.9271 19.7292 64.3281 19.5938C64.7344 19.4583 65.1875 19.3906 65.6875 19.3906C66.3958 19.3906 67.0026 19.5104 67.5078 19.75C68.0182 19.9844 68.4089 20.3047 68.6797 20.7109C68.9505 21.112 69.0859 21.5651 69.0859 22.0703H67.2031C67.2031 21.8464 67.1458 21.638 67.0312 21.4453C66.9219 21.2474 66.7552 21.0885 66.5312 20.9688C66.3073 20.8438 66.026 20.7812 65.6875 20.7812C65.3646 20.7812 65.0964 20.8333 64.8828 20.9375C64.6745 21.0365 64.5182 21.1667 64.4141 21.3281C64.3151 21.4896 64.2656 21.6667 64.2656 21.8594C64.2656 22 64.2917 22.1276 64.3438 22.2422C64.401 22.3516 64.4948 22.4531 64.625 22.5469C64.7552 22.6354 64.9323 22.7188 65.1562 22.7969C65.3854 22.875 65.6719 22.9505 66.0156 23.0234C66.6615 23.1589 67.2161 23.3333 67.6797 23.5469C68.1484 23.7552 68.5078 24.026 68.7578 24.3594C69.0078 24.6875 69.1328 25.1042 69.1328 25.6094C69.1328 25.9844 69.0521 26.3281 68.8906 26.6406C68.7344 26.9479 68.5052 27.2161 68.2031 27.4453C67.901 27.6693 67.5391 27.8438 67.1172 27.9688C66.7005 28.0938 66.2318 28.1562 65.7109 28.1562C64.9453 28.1562 64.2969 28.0208 63.7656 27.75C63.2344 27.474 62.8307 27.1224 62.5547 26.6953C62.2839 26.263 62.1484 25.8151 62.1484 25.3516H63.9688C63.9896 25.7005 64.0859 25.9792 64.2578 26.1875C64.4349 26.3906 64.6536 26.5391 64.9141 26.6328C65.1797 26.7214 65.4531 26.7656 65.7344 26.7656C66.0729 26.7656 66.3568 26.7214 66.5859 26.6328C66.8151 26.5391 66.9896 26.4141 67.1094 26.2578C67.2292 26.0964 67.2891 25.9141 67.2891 25.7109Z" fill="#9F9F9F"/>
</svg>
