<svg width="97" height="43" viewBox="0 0 97 43" fill="none" xmlns="http://www.w3.org/2000/svg">
<rect x="0.5" y="0.5" width="96" height="42" rx="4.5" fill="#E1AAAA" stroke="#E01111"/>
<path d="M34.2266 22V22.625C34.2266 23.4844 34.1146 24.2552 33.8906 24.9375C33.6667 25.6198 33.3464 26.2005 32.9297 26.6797C32.5182 27.1589 32.0234 27.526 31.4453 27.7812C30.8672 28.0312 30.2266 28.1562 29.5234 28.1562C28.8255 28.1562 28.1875 28.0312 27.6094 27.7812C27.0365 27.526 26.5391 27.1589 26.1172 26.6797C25.6953 26.2005 25.3672 25.6198 25.1328 24.9375C24.9036 24.2552 24.7891 23.4844 24.7891 22.625V22C24.7891 21.1406 24.9036 20.3724 25.1328 19.6953C25.362 19.013 25.6849 18.4323 26.1016 17.9531C26.5234 17.4688 27.0208 17.1016 27.5938 16.8516C28.1719 16.5964 28.8099 16.4688 29.5078 16.4688C30.2109 16.4688 30.8516 16.5964 31.4297 16.8516C32.0078 17.1016 32.5052 17.4688 32.9219 17.9531C33.3385 18.4323 33.6589 19.013 33.8828 19.6953C34.112 20.3724 34.2266 21.1406 34.2266 22ZM32.2656 22.625V21.9844C32.2656 21.349 32.2031 20.7891 32.0781 20.3047C31.9583 19.8151 31.7786 19.4062 31.5391 19.0781C31.3047 18.7448 31.0156 18.4948 30.6719 18.3281C30.3281 18.1562 29.9401 18.0703 29.5078 18.0703C29.0755 18.0703 28.6901 18.1562 28.3516 18.3281C28.013 18.4948 27.724 18.7448 27.4844 19.0781C27.25 19.4062 27.0703 19.8151 26.9453 20.3047C26.8203 20.7891 26.7578 21.349 26.7578 21.9844V22.625C26.7578 23.2604 26.8203 23.8229 26.9453 24.3125C27.0703 24.8021 27.2526 25.2161 27.4922 25.5547C27.737 25.888 28.0286 26.1406 28.3672 26.3125C28.7057 26.4792 29.0911 26.5625 29.5234 26.5625C29.9609 26.5625 30.349 26.4792 30.6875 26.3125C31.026 26.1406 31.3125 25.888 31.5469 25.5547C31.7812 25.2161 31.9583 24.8021 32.0781 24.3125C32.2031 23.8229 32.2656 23.2604 32.2656 22.625ZM38.5469 28H36.6641V18.7344C36.6641 18.1042 36.7812 17.5755 37.0156 17.1484C37.2552 16.7161 37.5964 16.3906 38.0391 16.1719C38.4818 15.9479 39.0052 15.8359 39.6094 15.8359C39.7969 15.8359 39.9818 15.849 40.1641 15.875C40.3464 15.8958 40.5234 15.9297 40.6953 15.9766L40.6484 17.4297C40.5443 17.4036 40.4297 17.3854 40.3047 17.375C40.1849 17.3646 40.0547 17.3594 39.9141 17.3594C39.6276 17.3594 39.3802 17.4141 39.1719 17.5234C38.9688 17.6276 38.8125 17.7812 38.7031 17.9844C38.599 18.1875 38.5469 18.4375 38.5469 18.7344V28ZM40.3438 19.5469V20.9219H35.3672V19.5469H40.3438ZM43.3906 28H41.5078V18.7891C41.5078 18.1484 41.6328 17.6094 41.8828 17.1719C42.138 16.7344 42.5026 16.4036 42.9766 16.1797C43.4557 15.9505 44.0365 15.8359 44.7188 15.8359C44.9896 15.8359 45.3281 15.8542 45.7344 15.8906C46.1458 15.9271 46.5729 15.974 47.0156 16.0312C47.4583 16.0833 47.8646 16.138 48.2344 16.1953L47.4141 17.6406C46.9349 17.5521 46.487 17.4844 46.0703 17.4375C45.6536 17.3854 45.276 17.3594 44.9375 17.3594C44.6042 17.3594 44.3203 17.4167 44.0859 17.5312C43.8568 17.6406 43.6823 17.8021 43.5625 18.0156C43.4479 18.224 43.3906 18.4818 43.3906 18.7891V28ZM46.3438 28V16.1953H48.2344V28H46.3438ZM45.1328 19.5469V20.9219H40.2109V19.5469H45.1328ZM52.3281 19.5469V28H50.4375V19.5469H52.3281ZM50.3125 17.3281C50.3125 17.0417 50.4062 16.8047 50.5938 16.6172C50.7865 16.4245 51.0521 16.3281 51.3906 16.3281C51.724 16.3281 51.987 16.4245 52.1797 16.6172C52.3724 16.8047 52.4688 17.0417 52.4688 17.3281C52.4688 17.6094 52.3724 17.8438 52.1797 18.0312C51.987 18.2188 51.724 18.3125 51.3906 18.3125C51.0521 18.3125 50.7865 18.2188 50.5938 18.0312C50.4062 17.8438 50.3125 17.6094 50.3125 17.3281ZM56.2578 21.3516V28H54.375V19.5469H56.1484L56.2578 21.3516ZM55.9219 23.4609L55.3125 23.4531C55.3177 22.8542 55.401 22.3047 55.5625 21.8047C55.7292 21.3047 55.9583 20.875 56.25 20.5156C56.5469 20.1562 56.901 19.8802 57.3125 19.6875C57.724 19.4896 58.1823 19.3906 58.6875 19.3906C59.0938 19.3906 59.4609 19.4479 59.7891 19.5625C60.1224 19.6719 60.4062 19.8516 60.6406 20.1016C60.8802 20.3516 61.0625 20.6771 61.1875 21.0781C61.3125 21.474 61.375 21.9609 61.375 22.5391V28H59.4844V22.5312C59.4844 22.125 59.4245 21.8047 59.3047 21.5703C59.1901 21.3307 59.0208 21.1615 58.7969 21.0625C58.5781 20.9583 58.3047 20.9062 57.9766 20.9062C57.6536 20.9062 57.3646 20.974 57.1094 21.1094C56.8542 21.2448 56.638 21.4297 56.4609 21.6641C56.2891 21.8984 56.1562 22.1693 56.0625 22.4766C55.9688 22.7839 55.9219 23.112 55.9219 23.4609ZM67.0234 28.1562C66.3984 28.1562 65.8333 28.0547 65.3281 27.8516C64.8281 27.6432 64.401 27.3542 64.0469 26.9844C63.6979 26.6146 63.4297 26.1797 63.2422 25.6797C63.0547 25.1797 62.9609 24.6406 62.9609 24.0625V23.75C62.9609 23.0885 63.0573 22.4896 63.25 21.9531C63.4427 21.4167 63.7109 20.9583 64.0547 20.5781C64.3984 20.1927 64.8047 19.8984 65.2734 19.6953C65.7422 19.4922 66.25 19.3906 66.7969 19.3906C67.401 19.3906 67.9297 19.4922 68.3828 19.6953C68.8359 19.8984 69.2109 20.1849 69.5078 20.5547C69.8099 20.9193 70.0339 21.3542 70.1797 21.8594C70.3307 22.3646 70.4062 22.9219 70.4062 23.5312V24.3359H63.875V22.9844H68.5469V22.8359C68.5365 22.4974 68.4688 22.1797 68.3438 21.8828C68.224 21.5859 68.0391 21.3464 67.7891 21.1641C67.5391 20.9818 67.2057 20.8906 66.7891 20.8906C66.4766 20.8906 66.1979 20.9583 65.9531 21.0938C65.7135 21.224 65.513 21.4141 65.3516 21.6641C65.1901 21.9141 65.0651 22.2161 64.9766 22.5703C64.8932 22.9193 64.8516 23.3125 64.8516 23.75V24.0625C64.8516 24.4323 64.901 24.776 65 25.0938C65.1042 25.4062 65.2552 25.6797 65.4531 25.9141C65.651 26.1484 65.8906 26.3333 66.1719 26.4688C66.4531 26.599 66.7734 26.6641 67.1328 26.6641C67.5859 26.6641 67.9896 26.5729 68.3438 26.3906C68.6979 26.2083 69.0052 25.9505 69.2656 25.6172L70.2578 26.5781C70.0755 26.8438 69.8385 27.099 69.5469 27.3438C69.2552 27.5833 68.8984 27.7786 68.4766 27.9297C68.0599 28.0807 67.5755 28.1562 67.0234 28.1562Z" fill="#F80032"/>
</svg>
