<svg width="97" height="43" viewBox="0 0 97 43" fill="none" xmlns="http://www.w3.org/2000/svg">
<rect x="0.5" y="0.5" width="96" height="42" rx="4.5" fill="#EAFDEF" stroke="#26E45C"/>
<path d="M34.2969 19.0234V19.6094C34.2969 20.4688 34.1823 21.2422 33.9531 21.9297C33.724 22.612 33.3984 23.1927 32.9766 23.6719C32.5547 24.151 32.0521 24.5182 31.4688 24.7734C30.8854 25.0286 30.237 25.1562 29.5234 25.1562C28.8203 25.1562 28.1745 25.0286 27.5859 24.7734C27.0026 24.5182 26.4974 24.151 26.0703 23.6719C25.6432 23.1927 25.3125 22.612 25.0781 21.9297C24.8438 21.2422 24.7266 20.4688 24.7266 19.6094V19.0234C24.7266 18.1589 24.8438 17.3854 25.0781 16.7031C25.3125 16.0208 25.6406 15.4401 26.0625 14.9609C26.4844 14.4766 26.987 14.1068 27.5703 13.8516C28.1589 13.5964 28.8047 13.4688 29.5078 13.4688C30.2214 13.4688 30.8698 13.5964 31.4531 13.8516C32.0365 14.1068 32.5391 14.4766 32.9609 14.9609C33.388 15.4401 33.7161 16.0208 33.9453 16.7031C34.1797 17.3854 34.2969 18.1589 34.2969 19.0234ZM32.125 19.6094V19.0078C32.125 18.388 32.0677 17.8438 31.9531 17.375C31.8385 16.901 31.6693 16.5026 31.4453 16.1797C31.2214 15.8568 30.9453 15.6146 30.6172 15.4531C30.2891 15.2865 29.9193 15.2031 29.5078 15.2031C29.0911 15.2031 28.7214 15.2865 28.3984 15.4531C28.0807 15.6146 27.8099 15.8568 27.5859 16.1797C27.362 16.5026 27.1901 16.901 27.0703 17.375C26.9557 17.8438 26.8984 18.388 26.8984 19.0078V19.6094C26.8984 20.224 26.9557 20.7682 27.0703 21.2422C27.1901 21.7161 27.362 22.1172 27.5859 22.4453C27.8151 22.7682 28.0911 23.013 28.4141 23.1797C28.737 23.3464 29.1068 23.4297 29.5234 23.4297C29.9401 23.4297 30.3099 23.3464 30.6328 23.1797C30.9557 23.013 31.2266 22.7682 31.4453 22.4453C31.6693 22.1172 31.8385 21.7161 31.9531 21.2422C32.0677 20.7682 32.125 20.224 32.125 19.6094ZM37.9844 18.3516V25H35.9219V16.5469H37.8594L37.9844 18.3516ZM37.6562 20.4688H37.0469C37.0521 19.8542 37.1354 19.2969 37.2969 18.7969C37.4583 18.2969 37.6849 17.8672 37.9766 17.5078C38.2734 17.1484 38.625 16.8724 39.0312 16.6797C39.4375 16.487 39.8906 16.3906 40.3906 16.3906C40.7969 16.3906 41.1641 16.4479 41.4922 16.5625C41.8203 16.6771 42.1016 16.8594 42.3359 17.1094C42.5755 17.3594 42.7578 17.6875 42.8828 18.0938C43.013 18.4948 43.0781 18.9896 43.0781 19.5781V25H41V19.5625C41 19.1771 40.9427 18.8724 40.8281 18.6484C40.7188 18.4245 40.5573 18.2656 40.3438 18.1719C40.1354 18.0781 39.8776 18.0312 39.5703 18.0312C39.2526 18.0312 38.974 18.0964 38.7344 18.2266C38.5 18.3516 38.3021 18.526 38.1406 18.75C37.9844 18.974 37.8646 19.2318 37.7812 19.5234C37.6979 19.8151 37.6562 20.1302 37.6562 20.4688ZM47.0859 13V25H45.0156V13H47.0859ZM51.2422 16.5469V25H49.1719V16.5469H51.2422ZM49.0312 14.3359C49.0312 14.0286 49.1354 13.7734 49.3438 13.5703C49.5573 13.3672 49.8438 13.2656 50.2031 13.2656C50.5625 13.2656 50.8464 13.3672 51.0547 13.5703C51.2682 13.7734 51.375 14.0286 51.375 14.3359C51.375 14.638 51.2682 14.8906 51.0547 15.0938C50.8464 15.2969 50.5625 15.3984 50.2031 15.3984C49.8438 15.3984 49.5573 15.2969 49.3438 15.0938C49.1354 14.8906 49.0312 14.638 49.0312 14.3359ZM55.2344 18.3516V25H53.1719V16.5469H55.1094L55.2344 18.3516ZM54.9062 20.4688H54.2969C54.3021 19.8542 54.3854 19.2969 54.5469 18.7969C54.7083 18.2969 54.9349 17.8672 55.2266 17.5078C55.5234 17.1484 55.875 16.8724 56.2812 16.6797C56.6875 16.487 57.1406 16.3906 57.6406 16.3906C58.0469 16.3906 58.4141 16.4479 58.7422 16.5625C59.0703 16.6771 59.3516 16.8594 59.5859 17.1094C59.8255 17.3594 60.0078 17.6875 60.1328 18.0938C60.263 18.4948 60.3281 18.9896 60.3281 19.5781V25H58.25V19.5625C58.25 19.1771 58.1927 18.8724 58.0781 18.6484C57.9688 18.4245 57.8073 18.2656 57.5938 18.1719C57.3854 18.0781 57.1276 18.0312 56.8203 18.0312C56.5026 18.0312 56.224 18.0964 55.9844 18.2266C55.75 18.3516 55.5521 18.526 55.3906 18.75C55.2344 18.974 55.1146 19.2318 55.0312 19.5234C54.9479 19.8151 54.9062 20.1302 54.9062 20.4688ZM65.9453 25.1562C65.3047 25.1562 64.7292 25.0521 64.2188 24.8438C63.7083 24.6354 63.2734 24.3464 62.9141 23.9766C62.5599 23.6016 62.2865 23.1667 62.0938 22.6719C61.9062 22.1719 61.8125 21.6354 61.8125 21.0625V20.75C61.8125 20.099 61.9062 19.5078 62.0938 18.9766C62.2812 18.4401 62.5469 17.9792 62.8906 17.5938C63.2344 17.2083 63.6458 16.9115 64.125 16.7031C64.6042 16.4948 65.1328 16.3906 65.7109 16.3906C66.3099 16.3906 66.8385 16.4922 67.2969 16.6953C67.7552 16.8932 68.138 17.1745 68.4453 17.5391C68.7526 17.9036 68.9844 18.3411 69.1406 18.8516C69.2969 19.3568 69.375 19.9167 69.375 20.5312V21.3984H62.75V19.9766H67.3438V19.8203C67.3333 19.4922 67.2708 19.1927 67.1562 18.9219C67.0417 18.6458 66.8646 18.4271 66.625 18.2656C66.3854 18.099 66.0755 18.0156 65.6953 18.0156C65.388 18.0156 65.1198 18.0833 64.8906 18.2188C64.6667 18.349 64.4792 18.5365 64.3281 18.7812C64.1823 19.0208 64.0729 19.3073 64 19.6406C63.9271 19.974 63.8906 20.3438 63.8906 20.75V21.0625C63.8906 21.4167 63.9375 21.7448 64.0312 22.0469C64.1302 22.349 64.2734 22.612 64.4609 22.8359C64.6536 23.0547 64.8828 23.2266 65.1484 23.3516C65.4193 23.4714 65.7266 23.5312 66.0703 23.5312C66.5026 23.5312 66.8932 23.4479 67.2422 23.2812C67.5964 23.1094 67.9036 22.8568 68.1641 22.5234L69.2031 23.6016C69.026 23.862 68.7865 24.112 68.4844 24.3516C68.1875 24.5911 67.8281 24.7865 67.4062 24.9375C66.9844 25.0833 66.4974 25.1562 65.9453 25.1562Z" fill="#11BA5F"/>
</svg>
