<svg width="142" height="43" viewBox="0 0 142 43" fill="none" xmlns="http://www.w3.org/2000/svg">
<rect x="0.5" y="0.5" width="141" height="42" rx="4.5" fill="#C299D5" stroke="#6D1597"/>
<path d="M31.8359 16.625V28H29.8906V16.625H31.8359ZM35.4062 16.625V18.1875H26.3516V16.625H35.4062ZM38.0469 21.1562V28H36.1641V19.5469H37.9609L38.0469 21.1562ZM40.6328 19.4922L40.6172 21.2422C40.5026 21.2214 40.3776 21.2057 40.2422 21.1953C40.112 21.1849 39.9818 21.1797 39.8516 21.1797C39.5286 21.1797 39.2448 21.2266 39 21.3203C38.7552 21.4089 38.5495 21.5391 38.3828 21.7109C38.2214 21.8776 38.0964 22.0807 38.0078 22.3203C37.9193 22.5599 37.8672 22.8281 37.8516 23.125L37.4219 23.1562C37.4219 22.625 37.474 22.1328 37.5781 21.6797C37.6823 21.2266 37.8385 20.8281 38.0469 20.4844C38.2604 20.1406 38.526 19.8724 38.8438 19.6797C39.1667 19.487 39.5391 19.3906 39.9609 19.3906C40.0755 19.3906 40.1979 19.401 40.3281 19.4219C40.4635 19.4427 40.5651 19.4661 40.6328 19.4922ZM45.3828 28.1562C44.7578 28.1562 44.1927 28.0547 43.6875 27.8516C43.1875 27.6432 42.7604 27.3542 42.4062 26.9844C42.0573 26.6146 41.7891 26.1797 41.6016 25.6797C41.4141 25.1797 41.3203 24.6406 41.3203 24.0625V23.75C41.3203 23.0885 41.4167 22.4896 41.6094 21.9531C41.8021 21.4167 42.0703 20.9583 42.4141 20.5781C42.7578 20.1927 43.1641 19.8984 43.6328 19.6953C44.1016 19.4922 44.6094 19.3906 45.1562 19.3906C45.7604 19.3906 46.2891 19.4922 46.7422 19.6953C47.1953 19.8984 47.5703 20.1849 47.8672 20.5547C48.1693 20.9193 48.3932 21.3542 48.5391 21.8594C48.6901 22.3646 48.7656 22.9219 48.7656 23.5312V24.3359H42.2344V22.9844H46.9062V22.8359C46.8958 22.4974 46.8281 22.1797 46.7031 21.8828C46.5833 21.5859 46.3984 21.3464 46.1484 21.1641C45.8984 20.9818 45.5651 20.8906 45.1484 20.8906C44.8359 20.8906 44.5573 20.9583 44.3125 21.0938C44.0729 21.224 43.8724 21.4141 43.7109 21.6641C43.5495 21.9141 43.4245 22.2161 43.3359 22.5703C43.2526 22.9193 43.2109 23.3125 43.2109 23.75V24.0625C43.2109 24.4323 43.2604 24.776 43.3594 25.0938C43.4635 25.4062 43.6146 25.6797 43.8125 25.9141C44.0104 26.1484 44.25 26.3333 44.5312 26.4688C44.8125 26.599 45.1328 26.6641 45.4922 26.6641C45.9453 26.6641 46.349 26.5729 46.7031 26.3906C47.0573 26.2083 47.3646 25.9505 47.625 25.6172L48.6172 26.5781C48.4349 26.8438 48.1979 27.099 47.9062 27.3438C47.6146 27.5833 47.2578 27.7786 46.8359 27.9297C46.4193 28.0807 45.9349 28.1562 45.3828 28.1562ZM52.25 19.5469V28H50.3594V19.5469H52.25ZM50.2344 17.3281C50.2344 17.0417 50.3281 16.8047 50.5156 16.6172C50.7083 16.4245 50.974 16.3281 51.3125 16.3281C51.6458 16.3281 51.9089 16.4245 52.1016 16.6172C52.2943 16.8047 52.3906 17.0417 52.3906 17.3281C52.3906 17.6094 52.2943 17.8438 52.1016 18.0312C51.9089 18.2188 51.6458 18.3125 51.3125 18.3125C50.974 18.3125 50.7083 18.2188 50.5156 18.0312C50.3281 17.8438 50.2344 17.6094 50.2344 17.3281ZM56.1797 21.3516V28H54.2969V19.5469H56.0703L56.1797 21.3516ZM55.8438 23.4609L55.2344 23.4531C55.2396 22.8542 55.3229 22.3047 55.4844 21.8047C55.651 21.3047 55.8802 20.875 56.1719 20.5156C56.4688 20.1562 56.8229 19.8802 57.2344 19.6875C57.6458 19.4896 58.1042 19.3906 58.6094 19.3906C59.0156 19.3906 59.3828 19.4479 59.7109 19.5625C60.0443 19.6719 60.3281 19.8516 60.5625 20.1016C60.8021 20.3516 60.9844 20.6771 61.1094 21.0781C61.2344 21.474 61.2969 21.9609 61.2969 22.5391V28H59.4062V22.5312C59.4062 22.125 59.3464 21.8047 59.2266 21.5703C59.112 21.3307 58.9427 21.1615 58.7188 21.0625C58.5 20.9583 58.2266 20.9062 57.8984 20.9062C57.5755 20.9062 57.2865 20.974 57.0312 21.1094C56.776 21.2448 56.5599 21.4297 56.3828 21.6641C56.2109 21.8984 56.0781 22.1693 55.9844 22.4766C55.8906 22.7839 55.8438 23.112 55.8438 23.4609ZM67.9844 26.3047V22.2734C67.9844 21.9714 67.9297 21.7109 67.8203 21.4922C67.7109 21.2734 67.5443 21.1042 67.3203 20.9844C67.1016 20.8646 66.8255 20.8047 66.4922 20.8047C66.1849 20.8047 65.9193 20.8568 65.6953 20.9609C65.4714 21.0651 65.2969 21.2057 65.1719 21.3828C65.0469 21.5599 64.9844 21.7604 64.9844 21.9844H63.1094C63.1094 21.651 63.1901 21.3281 63.3516 21.0156C63.513 20.7031 63.7474 20.4245 64.0547 20.1797C64.362 19.9349 64.7292 19.7422 65.1562 19.6016C65.5833 19.4609 66.0625 19.3906 66.5938 19.3906C67.2292 19.3906 67.7917 19.4974 68.2812 19.7109C68.776 19.9245 69.1641 20.2474 69.4453 20.6797C69.7318 21.1068 69.875 21.6432 69.875 22.2891V26.0469C69.875 26.4323 69.901 26.7786 69.9531 27.0859C70.0104 27.388 70.0911 27.651 70.1953 27.875V28H68.2656C68.1771 27.7969 68.1068 27.5391 68.0547 27.2266C68.0078 26.9089 67.9844 26.6016 67.9844 26.3047ZM68.2578 22.8594L68.2734 24.0234H66.9219C66.5729 24.0234 66.2656 24.0573 66 24.125C65.7344 24.1875 65.513 24.2812 65.3359 24.4062C65.1589 24.5312 65.026 24.6823 64.9375 24.8594C64.849 25.0365 64.8047 25.237 64.8047 25.4609C64.8047 25.6849 64.8568 25.8906 64.9609 26.0781C65.0651 26.2604 65.2161 26.4036 65.4141 26.5078C65.6172 26.612 65.862 26.6641 66.1484 26.6641C66.5339 26.6641 66.8698 26.5859 67.1562 26.4297C67.4479 26.2682 67.6771 26.0729 67.8438 25.8438C68.0104 25.6094 68.099 25.388 68.1094 25.1797L68.7188 26.0156C68.6562 26.2292 68.5495 26.4583 68.3984 26.7031C68.2474 26.9479 68.0495 27.1823 67.8047 27.4062C67.5651 27.625 67.276 27.8047 66.9375 27.9453C66.6042 28.0859 66.2188 28.1562 65.7812 28.1562C65.2292 28.1562 64.737 28.0469 64.3047 27.8281C63.8724 27.6042 63.5339 27.3047 63.2891 26.9297C63.0443 26.5495 62.9219 26.1198 62.9219 25.6406C62.9219 25.1927 63.0052 24.7969 63.1719 24.4531C63.3438 24.1042 63.5938 23.8125 63.9219 23.5781C64.2552 23.3438 64.6615 23.1667 65.1406 23.0469C65.6198 22.9219 66.1667 22.8594 66.7812 22.8594H68.2578ZM73.7266 21.2656V28H71.8438V19.5469H73.6172L73.7266 21.2656ZM73.4219 23.4609L72.7812 23.4531C72.7812 22.8698 72.8542 22.3307 73 21.8359C73.1458 21.3411 73.3594 20.9115 73.6406 20.5469C73.9219 20.1771 74.2708 19.8932 74.6875 19.6953C75.1094 19.4922 75.5964 19.3906 76.1484 19.3906C76.5339 19.3906 76.8854 19.4479 77.2031 19.5625C77.526 19.6719 77.8047 19.8464 78.0391 20.0859C78.2786 20.3255 78.4609 20.6328 78.5859 21.0078C78.7161 21.3828 78.7812 21.8359 78.7812 22.3672V28H76.8984V22.5312C76.8984 22.1198 76.8359 21.7969 76.7109 21.5625C76.5911 21.3281 76.4167 21.1615 76.1875 21.0625C75.9635 20.9583 75.6953 20.9062 75.3828 20.9062C75.0286 20.9062 74.7266 20.974 74.4766 21.1094C74.2318 21.2448 74.0312 21.4297 73.875 21.6641C73.7188 21.8984 73.6042 22.1693 73.5312 22.4766C73.4583 22.7839 73.4219 23.112 73.4219 23.4609ZM78.6641 22.9609L77.7812 23.1562C77.7812 22.6458 77.8516 22.1641 77.9922 21.7109C78.138 21.2526 78.349 20.8516 78.625 20.5078C78.9062 20.1589 79.2526 19.8854 79.6641 19.6875C80.0755 19.4896 80.5469 19.3906 81.0781 19.3906C81.5104 19.3906 81.8958 19.4505 82.2344 19.5703C82.5781 19.6849 82.8698 19.8672 83.1094 20.1172C83.349 20.3672 83.5312 20.6927 83.6562 21.0938C83.7812 21.4896 83.8438 21.9688 83.8438 22.5312V28H81.9531V22.5234C81.9531 22.0964 81.8906 21.7656 81.7656 21.5312C81.6458 21.2969 81.474 21.1354 81.25 21.0469C81.026 20.9531 80.7578 20.9062 80.4453 20.9062C80.1536 20.9062 79.8958 20.9609 79.6719 21.0703C79.4531 21.1745 79.2682 21.3229 79.1172 21.5156C78.9661 21.7031 78.8516 21.9193 78.7734 22.1641C78.7005 22.4089 78.6641 22.6745 78.6641 22.9609ZM89.5078 28.1562C88.8828 28.1562 88.3177 28.0547 87.8125 27.8516C87.3125 27.6432 86.8854 27.3542 86.5312 26.9844C86.1823 26.6146 85.9141 26.1797 85.7266 25.6797C85.5391 25.1797 85.4453 24.6406 85.4453 24.0625V23.75C85.4453 23.0885 85.5417 22.4896 85.7344 21.9531C85.9271 21.4167 86.1953 20.9583 86.5391 20.5781C86.8828 20.1927 87.2891 19.8984 87.7578 19.6953C88.2266 19.4922 88.7344 19.3906 89.2812 19.3906C89.8854 19.3906 90.4141 19.4922 90.8672 19.6953C91.3203 19.8984 91.6953 20.1849 91.9922 20.5547C92.2943 20.9193 92.5182 21.3542 92.6641 21.8594C92.8151 22.3646 92.8906 22.9219 92.8906 23.5312V24.3359H86.3594V22.9844H91.0312V22.8359C91.0208 22.4974 90.9531 22.1797 90.8281 21.8828C90.7083 21.5859 90.5234 21.3464 90.2734 21.1641C90.0234 20.9818 89.6901 20.8906 89.2734 20.8906C88.9609 20.8906 88.6823 20.9583 88.4375 21.0938C88.1979 21.224 87.9974 21.4141 87.8359 21.6641C87.6745 21.9141 87.5495 22.2161 87.4609 22.5703C87.3776 22.9193 87.3359 23.3125 87.3359 23.75V24.0625C87.3359 24.4323 87.3854 24.776 87.4844 25.0938C87.5885 25.4062 87.7396 25.6797 87.9375 25.9141C88.1354 26.1484 88.375 26.3333 88.6562 26.4688C88.9375 26.599 89.2578 26.6641 89.6172 26.6641C90.0703 26.6641 90.474 26.5729 90.8281 26.3906C91.1823 26.2083 91.4896 25.9505 91.75 25.6172L92.7422 26.5781C92.5599 26.8438 92.3229 27.099 92.0312 27.3438C91.7396 27.5833 91.3828 27.7786 90.9609 27.9297C90.5443 28.0807 90.0599 28.1562 89.5078 28.1562ZM96.2266 21.3516V28H94.3438V19.5469H96.1172L96.2266 21.3516ZM95.8906 23.4609L95.2812 23.4531C95.2865 22.8542 95.3698 22.3047 95.5312 21.8047C95.6979 21.3047 95.9271 20.875 96.2188 20.5156C96.5156 20.1562 96.8698 19.8802 97.2812 19.6875C97.6927 19.4896 98.151 19.3906 98.6562 19.3906C99.0625 19.3906 99.4297 19.4479 99.7578 19.5625C100.091 19.6719 100.375 19.8516 100.609 20.1016C100.849 20.3516 101.031 20.6771 101.156 21.0781C101.281 21.474 101.344 21.9609 101.344 22.5391V28H99.4531V22.5312C99.4531 22.125 99.3932 21.8047 99.2734 21.5703C99.1589 21.3307 98.9896 21.1615 98.7656 21.0625C98.5469 20.9583 98.2734 20.9062 97.9453 20.9062C97.6224 20.9062 97.3333 20.974 97.0781 21.1094C96.8229 21.2448 96.6068 21.4297 96.4297 21.6641C96.2578 21.8984 96.125 22.1693 96.0312 22.4766C95.9375 22.7839 95.8906 23.112 95.8906 23.4609ZM107.141 19.5469V20.9219H102.375V19.5469H107.141ZM103.75 17.4766H105.633V25.6641C105.633 25.9245 105.669 26.125 105.742 26.2656C105.82 26.401 105.927 26.4922 106.062 26.5391C106.198 26.5859 106.357 26.6094 106.539 26.6094C106.669 26.6094 106.794 26.6016 106.914 26.5859C107.034 26.5703 107.13 26.5547 107.203 26.5391L107.211 27.9766C107.055 28.0234 106.872 28.0651 106.664 28.1016C106.461 28.138 106.227 28.1562 105.961 28.1562C105.529 28.1562 105.146 28.0807 104.812 27.9297C104.479 27.7734 104.219 27.5208 104.031 27.1719C103.844 26.8229 103.75 26.3594 103.75 25.7812V17.4766ZM108.047 23.8672V23.6875C108.047 23.0781 108.135 22.513 108.312 21.9922C108.49 21.4661 108.745 21.0104 109.078 20.625C109.417 20.2344 109.828 19.9323 110.312 19.7188C110.802 19.5 111.354 19.3906 111.969 19.3906C112.589 19.3906 113.141 19.5 113.625 19.7188C114.115 19.9323 114.529 20.2344 114.867 20.625C115.206 21.0104 115.464 21.4661 115.641 21.9922C115.818 22.513 115.906 23.0781 115.906 23.6875V23.8672C115.906 24.4766 115.818 25.0417 115.641 25.5625C115.464 26.0833 115.206 26.5391 114.867 26.9297C114.529 27.3151 114.117 27.6172 113.633 27.8359C113.148 28.0495 112.599 28.1562 111.984 28.1562C111.365 28.1562 110.81 28.0495 110.32 27.8359C109.836 27.6172 109.424 27.3151 109.086 26.9297C108.747 26.5391 108.49 26.0833 108.312 25.5625C108.135 25.0417 108.047 24.4766 108.047 23.8672ZM109.93 23.6875V23.8672C109.93 24.2474 109.969 24.6068 110.047 24.9453C110.125 25.2839 110.247 25.5807 110.414 25.8359C110.581 26.0911 110.794 26.2917 111.055 26.4375C111.315 26.5833 111.625 26.6562 111.984 26.6562C112.333 26.6562 112.635 26.5833 112.891 26.4375C113.151 26.2917 113.365 26.0911 113.531 25.8359C113.698 25.5807 113.82 25.2839 113.898 24.9453C113.982 24.6068 114.023 24.2474 114.023 23.8672V23.6875C114.023 23.3125 113.982 22.9583 113.898 22.625C113.82 22.2865 113.695 21.987 113.523 21.7266C113.357 21.4661 113.143 21.263 112.883 21.1172C112.628 20.9661 112.323 20.8906 111.969 20.8906C111.615 20.8906 111.307 20.9661 111.047 21.1172C110.792 21.263 110.581 21.4661 110.414 21.7266C110.247 21.987 110.125 22.2865 110.047 22.625C109.969 22.9583 109.93 23.3125 109.93 23.6875Z" fill="#6D1597"/>
</svg>
